<svg xmlns="http://www.w3.org/2000/svg" viewBox="0 0 24 24" fill="currentColor"><path d="M5.927 12.497c2.063-.443 1.782-2.909 1.72-3.448-.101-.87-.947-2.39-2.327-2.239-1.71.187-1.886 2.727-1.886 2.727-.166 1.467.43 3.403 2.493 2.96zm3.905-4.32c1.284 0 2.325-1.378 2.325-3.079 0-1.7-1.04-3.078-2.325-3.078-1.283 0-2.324 1.378-2.324 3.078 0 1.701 1.04 3.08 2.324 3.08zm4.783 1.04c1.418.188 2.49-1.2 2.697-2.656.207-1.457-.564-2.876-1.98-3.063-1.418-.188-2.574 1.2-2.78 2.656-.207 1.456.646 2.876 2.063 3.063zm5.1 3.123c0-.001-1.04-3.287-3.657-2.768-1.702.338-1.702.338-2.616.225-.914-.113-1.6-.902-1.6-.902s-1.373 1.578-3.19 1.803c-1.816.226-2.842 1.128-3.19 1.803-.348.676-1.157 3.074-.116 4.652 1.04 1.578 2.842 1.353 2.842 1.353s1.6.225 3.416-.226c1.816-.45 3.416.113 3.416.113s3.19.789 4.345-.45c1.157-1.24.35-5.603.35-5.603zm-8.753 5.612c-.676.113-2.144-.338-2.144-.338-1.484-.563-2.842.113-2.842.113-1.6.676-2.616-.113-2.842-.563-.226-.45-.676-2.028.113-3.268.789-1.24 2.39-1.24 2.39-1.24 1.94-.226 2.842-1.128 2.842-1.128 1.373.902 2.39.789 2.39.789 2.503-.113 3.077 1.015 3.077 1.015.789 1.578-.308 4.507-.984 4.62z"/></svg>
